<svg version="1.1" viewBox="0.000000 0.000000 512.001000 512.001000" xmlns="http://www.w3.org/2000/svg" xmlns:xlink="http://www.w3.org/1999/xlink" id="Layer_1" overflow="hidden"><path d=" M 485.270996 240.531998 C 485.270996 204.733994 463.501007 174.020996 432.479004 160.908997 C 437.957001 150.319000 441.071014 138.307007 441.071014 125.560997 C 441.071014 83.000000 406.569000 48.498001 364.007996 48.498001 C 351.881989 48.498001 340.415009 51.306999 330.209015 56.296001 C 321.140991 23.827000 291.362000 0.000000 256.000000 0.000000 C 220.638000 0.000000 190.860001 23.827000 181.791000 56.296001 C 171.585007 51.306000 160.117996 48.498001 147.992004 48.498001 C 105.431000 48.498001 70.929001 83.000000 70.929001 125.560997 C 70.929001 138.307007 74.042000 150.319000 79.521004 160.908997 C 48.499001 174.022003 26.729000 204.733994 26.729000 240.531998 C 26.729000 286.924988 63.305000 324.727997 109.188004 326.796997 C 115.584999 349.967010 140.287994 367.239990 169.809998 367.239990 C 186.542007 367.239990 201.720001 361.683014 212.904999 352.658997 C 224.091003 361.683014 239.268997 367.239990 256.000000 367.239990 C 272.730988 367.239990 287.910004 361.683014 299.095001 352.658997 C 310.281006 361.683014 325.459015 367.239990 342.190002 367.239990 C 371.712006 367.239990 396.415009 349.967010 402.812012 326.795990 C 448.695007 324.726990 485.270996 286.924988 485.270996 240.531998 Z" fill="#129B12"/><g><path d=" M 251.376999 0.153000 C 250.427994 0.210000 249.483002 0.278000 248.544006 0.370000 C 248.255997 0.398000 247.970001 0.430000 247.684006 0.461000 C 246.675003 0.570000 245.671005 0.696000 244.673996 0.844000 C 244.487000 0.871000 244.300003 0.898000 244.113998 0.927000 C 242.927994 1.112000 241.748001 1.318000 240.580002 1.556000 C 240.578003 1.556000 240.576004 1.557000 240.574005 1.557000 C 260.803986 5.671000 279.744995 19.761000 291.744995 37.521000 C 300.243011 50.098000 314.761993 57.348000 329.906006 56.318001 C 330.006989 56.311001 330.106995 56.304001 330.208008 56.297001 C 321.140991 23.827000 291.362000 0.000000 256.000000 0.000000 C 254.759995 0.000000 253.529007 0.036000 252.304001 0.094000 C 251.994003 0.109000 251.686996 0.135000 251.376999 0.153000 Z" fill="#097C09"/><path d=" M 432.479004 160.908997 C 437.958008 150.319000 441.071014 138.307007 441.071014 125.560997 C 441.071014 83.000000 406.569000 48.498001 364.007996 48.498001 C 358.726013 48.498001 353.570007 49.032001 348.588013 50.046001 C 383.753998 57.193001 410.221008 88.285004 410.221008 125.560997 C 410.221008 138.307007 407.108002 150.319000 401.628998 160.908997 C 432.651001 174.022003 454.420990 204.733994 454.420990 240.531998 C 454.420990 286.924988 417.845001 324.726990 371.963013 326.795990 C 366.720001 345.786987 349.175995 360.808014 326.764008 365.612000 C 331.696991 366.670990 336.864014 367.239014 342.191010 367.239014 C 371.713013 367.239014 396.415985 349.966003 402.812988 326.795013 C 448.696014 324.726013 485.270996 286.924011 485.270996 240.531006 C 485.270996 204.733994 463.502991 174.020996 432.479004 160.908997 Z" fill="#097C09"/></g><path d=" M 200.820007 339.894989 C 193.869995 351.683014 165.067993 364.864014 154.386993 365.613007 C 155.561996 365.864990 156.753006 366.084991 157.953995 366.281006 C 158.050003 366.296997 158.145996 366.313995 158.242996 366.329010 C 159.460007 366.522003 160.688995 366.687988 161.931000 366.821014 C 161.962997 366.824005 161.994995 366.825989 162.026993 366.829987 C 163.143997 366.947998 164.272995 367.032990 165.408005 367.100006 C 165.684006 367.115997 165.960999 367.131989 166.238998 367.145996 C 167.421997 367.203003 168.610992 367.240997 169.811005 367.240997 L 169.811005 367.240997 C 185.070999 367.240997 199.026993 362.608002 209.852997 354.949005 L 211.751007 353.569000 L 202.085007 337.709991 L 200.820007 339.894989 Z" fill="#009000"/><path d=" M 294.532990 359.572998 L 327.549011 307.473999 C 330.161011 303.352997 329.369995 297.941986 325.688995 294.739990 L 325.688995 294.739990 C 321.757996 291.321014 315.846985 291.544006 312.184998 295.251007 L 287.869995 319.868011 C 284.644989 323.132996 279.119995 320.417999 279.734009 315.871002 L 286.884003 262.894989 C 287.648010 257.234985 283.463989 252.108994 277.765015 251.723999 L 271.066010 251.270996 C 266.032013 250.931000 261.552002 254.440994 260.677002 259.410004 L 247.914001 331.923004 C 247.203995 335.955994 242.082993 337.286011 239.500000 334.109985 L 199.528000 284.950989 C 196.761993 281.549011 192.084000 280.378998 188.042999 282.078003 L 181.044006 285.019012 C 175.503006 287.347992 173.311005 294.045990 176.403000 299.200012 L 217.479004 367.666992 C 223.427002 377.582001 225.880005 389.213989 224.393005 400.681000 C 219.070007 441.738007 212.457001 480.459015 185.395996 512.000977 L 326.600006 512.000977 L 326.600006 512.000977 C 297.631989 478.234985 290.485992 436.243988 286.652008 391.966003 C 285.670990 380.595001 288.424011 369.212006 294.532990 359.572998 Z" fill="#BF6101"/><path d=" M 327.549011 307.473999 C 330.161011 303.352997 329.371002 297.941986 325.688995 294.739990 L 325.688995 294.739990 C 321.757996 291.321014 315.846985 291.544006 312.184998 295.251007 L 301.325989 306.243988 L 301.325989 306.243988 L 287.869995 319.867004 C 284.644989 323.131989 279.119995 320.416992 279.734009 315.869995 L 286.884003 262.894012 C 287.628998 257.377014 283.667999 252.380005 278.190002 251.774002 L 258.084991 376.739014 C 257.747009 378.352997 257.483002 379.981995 257.299011 381.622986 L 257.299011 381.622986 L 257.299011 381.622986 C 256.915985 385.037994 256.864990 388.501007 257.164001 391.963989 C 261.000000 436.243011 268.145996 478.234009 297.114014 512.000000 L 297.114014 512.000000 L 326.601990 512.000000 L 326.601990 512.000000 C 297.634003 478.234009 290.488007 436.243011 286.653992 391.964996 C 285.670013 380.595001 288.424011 369.213013 294.532013 359.572998 L 327.549011 307.473999 Z" fill="#9A4D01"/><path d=" M 241.332993 60.500000 C 219.712006 60.500000 201.100998 73.332001 192.664001 91.790001 C 183.947998 85.630997 173.317993 82.000000 161.832993 82.000000 C 132.285995 82.000000 108.333000 105.953003 108.333000 135.500000 C 108.333000 145.248993 110.954002 154.380997 115.510002 162.251999 C 89.853996 166.197006 70.206001 188.367004 70.206001 215.126999 C 70.206001 244.673996 94.158997 268.627014 123.706001 268.627014 C 153.253006 268.627014 294.833008 143.546997 294.833008 114.000000 C 294.833008 84.453003 270.881989 60.500000 241.332993 60.500000 Z" fill="#28A528"/><g></g><g></g><g></g><g></g><g></g><g></g><g></g><g></g><g></g><g></g><g></g><g></g><g></g><g></g><g></g></svg>