<svg version="1.1" viewBox="0.000000 0.000000 512.000000 512.000000" xmlns="http://www.w3.org/2000/svg" xmlns:xlink="http://www.w3.org/1999/xlink" id="Capa_1" overflow="hidden"><path d=" M 110.740997 278.144012 C 106.755997 276.489990 102.167000 277.398987 99.113998 280.447998 L 64.000000 315.584015 L 28.885000 280.447998 C 24.725000 276.277008 17.971001 276.269012 13.800000 280.428986 C 11.789000 282.434998 10.661000 285.160004 10.666000 288.000000 L 10.666000 501.333008 C 10.666000 507.223999 15.442000 512.000000 21.333000 512.000000 L 106.666000 512.000000 C 112.556999 512.000000 117.333000 507.223999 117.333000 501.333008 L 117.333000 288.000000 C 117.333000 283.683990 114.730003 279.792999 110.740997 278.144012 Z" fill="#64B5F6"/><path d=" M 199.552002 195.115005 C 195.386993 190.951004 188.634995 190.951004 184.468994 195.115005 L 141.802002 237.781998 C 139.794998 239.783005 138.667007 242.500000 138.666000 245.334000 L 138.666000 501.334015 C 138.666000 507.225006 143.442001 512.000977 149.332993 512.000977 L 234.666000 512.000977 C 240.557007 512.000977 245.332993 507.225006 245.332993 501.334015 L 245.332993 245.334000 C 245.337997 242.503006 244.218002 239.785995 242.218002 237.781998 L 199.552002 195.115005 Z" fill="#42A5F5"/><path d=" M 327.552002 152.447998 C 323.386993 148.283997 316.635010 148.283997 312.468994 152.447998 L 269.802002 195.115005 C 267.795013 197.115997 266.666992 199.832993 266.665985 202.667007 L 266.665985 501.334015 C 266.665985 507.225006 271.441986 512.000977 277.333008 512.000977 L 362.665985 512.000977 C 368.557007 512.000977 373.333008 507.225006 373.333008 501.334015 L 373.333008 202.667007 C 373.338013 199.835999 372.217987 197.119003 370.217987 195.115005 L 327.552002 152.447998 Z" fill="#2196F3"/><path d=" M 498.218994 131.115005 L 476.885986 109.781998 C 474.881989 107.782997 472.165009 106.662003 469.334015 106.667000 L 448.000000 106.667000 C 445.169006 106.662003 442.451996 107.781998 440.447998 109.781998 L 397.781006 152.449005 C 395.782013 154.453003 394.661011 157.169998 394.665985 160.001007 L 394.665985 501.334015 C 394.665985 507.225006 399.441986 512.000977 405.333008 512.000977 L 490.665985 512.000977 C 496.557007 512.000977 501.333008 507.225006 501.333008 501.334015 L 501.333008 138.667007 C 501.338013 135.835999 500.217987 133.119003 498.218994 131.115005 Z" fill="#1976D2"/><path d=" M 490.666992 0.000000 L 426.666992 0.000000 C 420.776001 -0.011000 415.992004 4.757000 415.980988 10.648000 C 415.976013 13.488000 417.104004 16.212999 419.114990 18.219000 L 443.584015 42.667000 L 362.666992 123.584000 L 327.552002 88.447998 C 323.386993 84.283997 316.635010 84.283997 312.468994 88.447998 L 234.666000 166.251007 L 199.550995 131.115005 C 195.386002 126.950996 188.634003 126.950996 184.468002 131.115005 L 64.000000 251.584000 L 28.885000 216.447998 C 24.648001 212.354996 17.895000 212.473007 13.802000 216.710007 C 9.810000 220.843994 9.810000 227.397003 13.802000 231.529999 L 56.469002 274.196991 C 60.633999 278.360992 67.386002 278.360992 71.552002 274.196991 L 192.000000 153.748993 L 227.115005 188.863998 C 231.279999 193.028000 238.031998 193.028000 242.197998 188.863998 L 320.000000 111.083000 L 355.114990 146.197998 C 359.279999 150.362000 366.032013 150.362000 370.197998 146.197998 L 458.666992 57.750000 L 483.114990 82.197998 C 485.115997 84.205002 487.833008 85.333000 490.666992 85.334000 C 492.066010 85.336998 493.450989 85.060997 494.742004 84.523003 C 498.730988 82.874001 501.333008 78.984001 501.334015 74.667000 L 501.334015 10.667000 C 501.333008 4.776000 496.558014 0.000000 490.666992 0.000000 Z" fill="#455A64"/><g></g><g></g><g></g><g></g><g></g><g></g><g></g><g></g><g></g><g></g><g></g><g></g><g></g><g></g><g></g></svg>