<svg version="1.1" viewBox="0.000000 0.000000 490.688000 490.688000" xmlns="http://www.w3.org/2000/svg" xmlns:xlink="http://www.w3.org/1999/xlink" id="Capa_1" overflow="hidden"><path d=" M 462.783997 209.087997 C 455.231995 203.520004 445.717010 196.565002 444.565002 192.020996 C 445.049011 183.225006 447.561005 174.660995 451.903992 166.996994 C 458.559998 151.722000 465.428986 135.893005 457.791992 122.730003 C 450.154999 109.567001 432.789001 107.433998 416.084991 105.663002 C 407.427002 105.605003 398.897003 103.569000 391.145996 99.710999 C 387.282013 91.932999 385.252991 83.372002 385.214996 74.686996 C 383.338013 57.983002 381.395996 40.702999 368.148010 32.980000 C 354.899994 25.257000 339.049011 32.020000 323.774994 38.761002 C 316.102997 43.102001 307.532013 45.612999 298.730011 46.099998 C 294.122009 44.862999 287.188995 35.432999 281.662994 27.881001 C 271.977997 14.825000 261.075989 0.020000 245.332001 0.020000 C 229.587997 0.020000 218.686996 14.825000 209.065002 27.881001 C 203.475998 35.453999 196.542007 44.948002 191.998001 46.120998 C 183.203995 45.591000 174.641998 43.083000 166.953003 38.782001 C 151.593002 32.019001 135.764008 25.278000 122.643997 32.873001 C 109.524002 40.467999 107.327003 57.875999 105.448997 74.685997 C 105.388000 83.341003 103.360001 91.869003 99.517998 99.625000 C 91.781998 103.428001 83.285004 105.426003 74.665001 105.470001 C 57.939999 107.347000 40.638000 109.289001 32.937000 122.537003 C 25.236000 135.785004 32.000000 151.615997 38.741001 166.912003 C 43.098000 174.600998 45.610001 183.195999 46.080002 192.020996 C 44.842999 196.628998 35.412998 203.584000 27.861000 209.087997 C 14.805000 218.688004 0.000000 229.610992 0.000000 245.354996 C 0.000000 261.098999 14.805000 272.022003 27.882999 281.622009 C 35.435001 287.190002 44.950001 294.144989 46.102001 298.688995 C 45.618000 307.484985 43.105999 316.049011 38.763000 323.713013 C 32.106998 338.988007 25.238001 354.816986 32.875000 367.980011 C 40.512001 381.143005 57.877998 383.276001 74.582001 385.046997 C 83.239998 385.105011 91.769997 387.140991 99.521004 390.998993 C 103.385002 398.777008 105.414001 407.338013 105.452003 416.023010 C 107.329002 432.726990 109.271004 450.006989 122.518997 457.730011 C 135.766998 465.453003 151.490005 458.497986 166.785995 451.842010 C 174.535004 447.549011 183.156006 445.069000 192.001999 444.588989 C 196.610001 445.825989 203.542999 455.256012 209.069000 462.808014 C 218.690002 475.864014 229.591995 490.669006 245.335999 490.669006 C 261.079987 490.669006 271.980988 475.864014 281.602997 462.808014 C 287.191986 455.234985 294.126007 445.740997 298.670013 444.567993 C 307.470001 445.066010 316.037994 447.575989 323.714996 451.907013 C 338.989990 458.562988 354.819000 465.390015 367.959991 457.816010 C 381.101013 450.243011 383.277008 432.812988 385.154999 416.088013 C 385.216003 407.433014 387.243988 398.904999 391.085999 391.148987 C 398.835999 387.315002 407.356995 385.294006 416.002991 385.239990 C 432.727997 383.363007 450.029999 381.420990 457.730988 368.173004 C 465.432007 354.924988 458.477997 339.201996 451.842987 323.906006 C 447.500000 316.178009 445.016998 307.544006 444.589996 298.690002 C 445.826996 294.082001 455.256989 287.127014 462.808990 281.622986 C 475.864990 272.002014 490.691986 261.079010 490.691986 245.356003 C 490.691986 229.632996 475.860992 218.688004 462.783997 209.087997 Z" fill="#FFC107"/><g><path d=" M 181.332993 298.687988 C 177.975998 298.687988 174.813995 297.106995 172.800003 294.420990 L 128.000000 234.688004 L 128.000000 288.020996 C 128.000000 293.911987 123.223999 298.687988 117.333000 298.687988 C 111.442001 298.687988 106.666000 293.911987 106.666000 288.020996 L 106.666000 202.688004 C 106.666000 196.796997 111.442001 192.020996 117.333000 192.020996 C 120.690002 192.020996 123.851997 193.602005 125.865997 196.287994 L 170.666000 256.020996 L 170.666000 202.688004 C 170.666000 196.796997 175.442001 192.020996 181.332993 192.020996 C 187.223999 192.020996 192.000000 196.796997 192.000000 202.688004 L 192.000000 288.020996 C 191.996994 292.609985 189.057999 296.683014 184.703995 298.132996 C 183.617996 298.501007 182.479996 298.687988 181.332993 298.687988 Z" fill="#FAFAFA"/><path d=" M 266.666992 298.687988 L 224.000000 298.687988 C 218.108994 298.687988 213.332993 293.911987 213.332993 288.020996 L 213.332993 202.688004 C 213.332993 196.796997 218.108994 192.020996 224.000000 192.020996 L 266.666992 192.020996 C 272.558014 192.020996 277.334015 196.796997 277.334015 202.688004 C 277.334015 208.578995 272.558014 213.354996 266.666992 213.354996 L 234.667007 213.354996 L 234.667007 277.355011 L 266.666992 277.355011 C 272.558014 277.355011 277.334015 282.131012 277.334015 288.022003 C 277.334015 293.912994 272.558014 298.687988 266.666992 298.687988 Z" fill="#FAFAFA"/><path d=" M 266.666992 256.020996 L 224.000000 256.020996 C 218.108994 256.020996 213.332993 251.244995 213.332993 245.354004 C 213.332993 239.462997 218.108994 234.686996 224.000000 234.686996 L 266.666992 234.686996 C 272.558014 234.686996 277.334015 239.462997 277.334015 245.354004 C 277.334015 251.244995 272.558014 256.020996 266.666992 256.020996 Z" fill="#FAFAFA"/><path d=" M 373.333008 298.687988 C 368.735992 298.694000 364.652008 295.753998 363.200012 291.391998 L 352.000000 257.748993 L 340.799988 291.391998 C 339.437012 295.994995 335.049011 299.024994 330.260986 298.666992 C 325.523010 298.487000 321.472992 295.201996 320.320007 290.602997 L 298.987000 205.270004 C 297.561005 199.550003 301.042999 193.757004 306.763000 192.330994 C 312.483002 190.904999 318.276001 194.386993 319.701996 200.106995 L 332.139008 249.899002 L 341.888000 220.651001 C 344.423004 215.059998 351.010010 212.582993 356.601013 215.117996 C 359.054993 216.231003 361.020996 218.197006 362.134003 220.651001 L 371.882996 249.899002 L 384.320007 200.106995 C 385.746002 194.386993 391.537994 190.904999 397.259003 192.330994 C 402.979004 193.757004 406.460999 199.548996 405.035004 205.270004 L 383.701996 290.602997 C 382.549011 295.201996 378.497986 298.487000 373.760986 298.666992 L 373.333008 298.687988 Z" fill="#FAFAFA"/></g><g></g><g></g><g></g><g></g><g></g><g></g><g></g><g></g><g></g><g></g><g></g><g></g><g></g><g></g><g></g></svg>