<svg version="1.1" width="681.333000" height="681.333000" viewBox="-38.000000 0.000000 511.000000 512.000000" xmlns="http://www.w3.org/2000/svg" xmlns:xlink="http://www.w3.org/1999/xlink" overflow="hidden"><g id="surface1"><path d=" M 413.476990 341.910004 C 399.714996 379.207001 378.902008 411.636993 351.609009 438.289001 C 320.542999 468.625000 279.863007 492.730011 230.699005 509.925995 C 229.085999 510.488007 227.401993 510.949005 225.710999 511.289001 C 223.477005 511.730011 221.203003 511.968994 218.949005 512.000000 L 218.507996 512.000000 C 216.104996 512.000000 213.690994 511.757996 211.296997 511.289001 C 209.604996 510.949005 207.945007 510.488007 206.339996 509.937988 C 157.117004 492.769989 116.387001 468.675995 85.289101 438.339996 C 57.984402 411.687988 37.175800 379.277008 23.433599 341.980011 C -1.554690 274.167999 -0.132812 199.464996 1.011720 139.434006 L 1.031250 138.511993 C 1.261720 133.554993 1.410160 128.348007 1.492190 122.598000 C 1.910160 94.367203 24.355499 71.011703 52.589802 69.437500 C 111.457001 66.152298 156.996002 46.953098 195.906006 9.027340 L 196.246002 8.714840 C 202.707001 2.789060 210.848007 -0.117188 218.949005 0.003906 C 226.761993 0.105469 234.542999 3.007810 240.772995 8.714840 L 241.104996 9.027340 C 280.023010 46.953098 325.562988 66.152298 384.429993 69.437500 C 412.664001 71.011703 435.109009 94.367203 435.527008 122.598000 C 435.609009 128.386993 435.757996 133.585999 435.988007 138.511993 L 436.000000 138.901993 C 437.140991 199.046997 438.554993 273.898010 413.476990 341.910004 Z" stroke="none" fill="#00DD80" fill-rule="nonzero" fill-opacity="1.000000"/><path d=" M 413.476990 341.910004 C 399.714996 379.207001 378.902008 411.636993 351.609009 438.289001 C 320.542999 468.625000 279.863007 492.730011 230.699005 509.925995 C 229.085999 510.488007 227.401993 510.949005 225.710999 511.289001 C 223.477005 511.730011 221.203003 511.968994 218.949005 512.000000 L 218.949005 0.003906 C 226.761993 0.105469 234.542999 3.007810 240.772995 8.714840 L 241.104996 9.027340 C 280.023010 46.953098 325.562988 66.152298 384.429993 69.437500 C 412.664001 71.011703 435.109009 94.367203 435.527008 122.598000 C 435.609009 128.386993 435.757996 133.585999 435.988007 138.511993 L 436.000000 138.901993 C 437.140991 199.046997 438.554993 273.898010 413.476990 341.910004 Z" stroke="none" fill="#00AA63" fill-rule="nonzero" fill-opacity="1.000000"/><path d=" M 346.101990 256.000000 C 346.101990 326.207001 289.097992 383.355011 218.949005 383.605011 L 218.500000 383.605011 C 148.145004 383.605011 90.894501 326.359009 90.894501 256.000000 C 90.894501 185.645004 148.145004 128.397995 218.500000 128.397995 L 218.949005 128.397995 C 289.097992 128.647995 346.101990 185.796997 346.101990 256.000000 Z" stroke="none" fill="#FFFFFF" fill-rule="nonzero" fill-opacity="1.000000"/><path d=" M 346.101990 256.000000 C 346.101990 326.207001 289.097992 383.355011 218.949005 383.605011 L 218.949005 128.397995 C 289.097992 128.647995 346.101990 185.796997 346.101990 256.000000 Z" stroke="none" fill="#E1EBF0" fill-rule="nonzero" fill-opacity="1.000000"/><path d=" M 276.417999 237.625000 L 218.949005 295.101990 L 206.531006 307.519989 C 203.598007 310.453003 199.750000 311.917999 195.906006 311.917999 C 192.059006 311.917999 188.214996 310.453003 185.276993 307.519989 L 158.578003 280.808990 C 152.710999 274.941010 152.710999 265.437988 158.578003 259.566010 C 164.438004 253.699005 173.953003 253.699005 179.820007 259.566010 L 195.906006 275.652008 L 255.175995 216.382996 C 261.042999 210.511993 270.558990 210.511993 276.417999 216.382996 C 282.285004 222.250000 282.285004 231.766006 276.417999 237.625000 Z" stroke="none" fill="#B4D2D7" fill-rule="nonzero" fill-opacity="1.000000"/><path d=" M 276.417999 237.625000 L 218.949005 295.101990 L 218.949005 252.604996 L 255.175995 216.382996 C 261.042999 210.511993 270.558990 210.511993 276.417999 216.382996 C 282.285004 222.250000 282.285004 231.766006 276.417999 237.625000 Z" stroke="none" fill="#6FA5AA" fill-rule="nonzero" fill-opacity="1.000000"/></g></svg>